name baseline.mot
datacolumns 19
datarows 12
range 7.62330200000000 7.64163700000000
endheader
time	ground_force1_vx	ground_force1_vy	ground_force1_vz	ground_force1_px	ground_force1_py	ground_force1_pz	ground_force2_vx	ground_force2_vy	ground_force2_vz	ground_force2_px	ground_force2_py	ground_force2_pz	ground_torque1_x	ground_torque1_y	ground_torque1_z	ground_torque2_x	ground_torque2_y	ground_torque2_z	
7.62330200000000	9.25177900000000	730.56551100000001	53.36068500000000	0.09403200000000	0.00000000000000	0.14845500000000	0.00000000000000	0.00000000000000	0.00000000000000	0.00000000000000	0.00000000000000	0.00000000000000	0.00000000000000	5.31944100000000	0.00000000000000	0.00000000000000	0.00000000000000	0.00000000000000	
7.62497600000000	8.72769900000000	731.26389900000004	53.43975200000000	0.09293400000000	0.00000000000000	0.14847100000000	0.00000000000000	0.00000000000000	0.00000000000000	0.00000000000000	0.00000000000000	0.00000000000000	0.00000000000000	5.38490300000000	0.00000000000000	0.00000000000000	0.00000000000000	0.00000000000000	
7.62663700000000	8.20293800000000	731.95480799999996	53.52092800000000	0.09184200000000	0.00000000000000	0.14848800000000	0.00000000000000	0.00000000000000	0.00000000000000	0.00000000000000	0.00000000000000	0.00000000000000	0.00000000000000	5.45174600000000	0.00000000000000	0.00000000000000	0.00000000000000	0.00000000000000	
7.62830400000000	7.67761400000000	732.63864300000000	53.60415400000000	0.09075700000000	0.00000000000000	0.14850300000000	0.00000000000000	0.00000000000000	0.00000000000000	0.00000000000000	0.00000000000000	0.00000000000000	0.00000000000000	5.51994500000000	0.00000000000000	0.00000000000000	0.00000000000000	0.00000000000000	
7.62997600000000	7.15183600000000	733.31585800000005	53.68937400000000	0.08967900000000	0.00000000000000	0.14851800000000	0.00000000000000	0.00000000000000	0.00000000000000	0.00000000000000	0.00000000000000	0.00000000000000	0.00000000000000	5.58947800000000	0.00000000000000	0.00000000000000	0.00000000000000	0.00000000000000	
7.63164100000000	6.62570000000000	733.98695699999996	53.77653200000000	0.08860700000000	0.00000000000000	0.14853300000000	0.00000000000000	0.00000000000000	0.00000000000000	0.00000000000000	0.00000000000000	0.00000000000000	0.00000000000000	5.66032000000000	0.00000000000000	0.00000000000000	0.00000000000000	0.00000000000000	
7.63330400000000	6.09929100000000	734.65248399999996	53.86557500000000	0.08754200000000	0.00000000000000	0.14854700000000	0.00000000000000	0.00000000000000	0.00000000000000	0.00000000000000	0.00000000000000	0.00000000000000	0.00000000000000	5.73244700000000	0.00000000000000	0.00000000000000	0.00000000000000	0.00000000000000	
7.63497800000000	5.57268100000000	735.31301800000006	53.95645100000000	0.08648300000000	0.00000000000000	0.14856100000000	0.00000000000000	0.00000000000000	0.00000000000000	0.00000000000000	0.00000000000000	0.00000000000000	0.00000000000000	5.80583800000000	0.00000000000000	0.00000000000000	0.00000000000000	0.00000000000000	
7.63664200000000	5.04592800000000	735.96917399999995	54.04910700000000	0.08543200000000	0.00000000000000	0.14857400000000	0.00000000000000	0.00000000000000	0.00000000000000	0.00000000000000	0.00000000000000	0.00000000000000	0.00000000000000	5.88046700000000	0.00000000000000	0.00000000000000	0.00000000000000	0.00000000000000	
7.63830700000000	4.51907900000000	736.62159299999996	54.14349600000000	0.08438600000000	0.00000000000000	0.14858600000000	0.00000000000000	0.00000000000000	0.00000000000000	0.00000000000000	0.00000000000000	0.00000000000000	0.00000000000000	5.95631400000000	0.00000000000000	0.00000000000000	0.00000000000000	0.00000000000000	
7.63997500000000	3.99216700000000	737.27093900000000	54.23957000000000	0.08334600000000	0.00000000000000	0.14859800000000	0.00000000000000	0.00000000000000	0.00000000000000	0.00000000000000	0.00000000000000	0.00000000000000	0.00000000000000	6.03335400000000	0.00000000000000	0.00000000000000	0.00000000000000	0.00000000000000	
7.64163700000000	3.46521300000000	737.91789800000004	54.33728300000000	0.08231200000000	0.00000000000000	0.14861000000000	0.00000000000000	0.00000000000000	0.00000000000000	0.00000000000000	0.00000000000000	0.00000000000000	0.00000000000000	6.11156500000000	0.00000000000000	0.00000000000000	0.00000000000000	0.00000000000000	
